# xmcd CD database file
#
# Track frame offsets:
#	150
#	21112
#	40087
#	57995
#	78420
#	96672
#	115440
#	134039
#	152293
#	169099
#	185880
#	204550
#	222902
#
# Disc length: 3113 seconds
#
# Revision: 31
# Processed by: cddbd v1.5PL3 Copyright (c) Steve Scherf et al.
# Submitted via: CDex 1.50
#
DISCID=bd0c270d
DTITLE=Eros Ramazzotti - ER9S
DYEAR=2003
DGENRE=Latin
TTITLE0=Un segundo de paz
TTITLE1=Solo Ayer
TTITLE2=Una emocion para siempre
TTITLE3=Revivirte otra vez
TTITLE4=La noche son tus ojos
TTITLE5=Un ancla en el viento
TTITLE6=Piedra pequeña
TTITLE7=Mamara, una gran mujer
TTITLE8=El hombre que miraba las nubes
TTITLE9=Cancion para ella
TTITLE10=No te prometo nada
TTITLE11=Falsa salida
TTITLE12=Hay una melodia
EXTD=Album en Español YEAR: 2003
EXTT0=
EXTT1=
EXTT2=
EXTT3=
EXTT4=
EXTT5=
EXTT6=
EXTT7=
EXTT8=
EXTT9=
EXTT10=
EXTT11=
EXTT12=
PLAYORDER=
